<svg width="94" height="94" viewBox="0 0 94 94" fill="none" xmlns="http://www.w3.org/2000/svg">
<path d="M0 0H93.3036V93.3036H0V0Z" fill="white" fill-opacity="0.01"/>
<path d="M46.6518 85.5283C68.1227 85.5283 85.5283 68.1227 85.5283 46.6518C85.5283 25.1809 68.1227 7.7753 46.6518 7.7753C25.1809 7.7753 7.7753 25.1809 7.7753 46.6518C7.7753 68.1227 25.1809 85.5283 46.6518 85.5283Z" stroke="black" stroke-width="5"/>
<path d="M7.77527 40.5101C13.6356 37.7429 17.97 37.3574 20.7783 39.3535C24.991 42.348 25.5191 54.5515 35.1006 48.7191C44.6821 42.8866 30.9976 40.5101 33.9683 32.0613C36.9391 23.6124 46.6679 30.1754 47.6352 20.9208C48.2797 14.751 40.8996 12.3902 25.4944 13.8385" stroke="black" stroke-width="5"/>
<path d="M69.9779 15.5506C58.8701 25.2476 54.9906 31.1033 58.3394 33.1175C63.3624 36.139 65.4938 31.8851 71.6235 33.1175C77.7532 34.3501 76.4259 42.6586 73.2019 42.6586C69.9779 42.6586 53.2802 40.5323 54.1213 50.277C54.9622 60.0216 65.0058 61.4643 65.0058 66.9086C65.0058 70.5381 62.7836 76.093 58.3394 83.5732" stroke="black" stroke-width="5" stroke-linecap="round"/>
<path d="M11.8663 64.0032C13.638 63.2303 14.9699 62.6639 15.8618 62.3035C23.3399 59.2824 28.8887 58.5702 32.5079 60.1673C38.908 62.9914 36.4475 68.695 38.4521 70.7963C40.4566 72.8976 45.4624 72.2862 45.4624 76.2835C45.4624 78.9485 44.5672 81.9589 42.777 85.3147" stroke="black" stroke-width="5" stroke-linecap="round"/>
</svg>
