<svg width="94" height="94" viewBox="0 0 94 94" fill="none" xmlns="http://www.w3.org/2000/svg">
<path d="M0 0H93.3036V93.3036H0V0Z" fill="white" fill-opacity="0.01"/>
<path d="M19.1619 63.6747C12.1267 65.7853 7.77527 68.701 7.77527 71.9216C7.77527 78.3628 25.1809 83.5845 46.6518 83.5845C68.1227 83.5845 85.5283 78.3628 85.5283 71.9216C85.5283 68.701 81.1768 65.7853 74.1416 63.6747" stroke="black" stroke-width="5" stroke-linecap="round" stroke-linejoin="round"/>
<path d="M46.6518 68.0339C46.6518 68.0339 71.9215 51.5191 71.9215 32.4265C71.9215 18.812 60.6079 7.7753 46.6518 7.7753C32.6957 7.7753 21.382 18.812 21.382 32.4265C21.382 51.5191 46.6518 68.0339 46.6518 68.0339Z" fill="#00E472" stroke="black" stroke-width="5" stroke-linejoin="round"/>
<path d="M46.6518 42.7642C52.0195 42.7642 56.3709 38.4127 56.3709 33.045C56.3709 27.6773 52.0195 23.3259 46.6518 23.3259C41.2841 23.3259 36.9326 27.6773 36.9326 33.045C36.9326 38.4127 41.2841 42.7642 46.6518 42.7642Z" fill="#00E472" fill-opacity="0.5" stroke="white" stroke-width="5" stroke-linejoin="round"/>
</svg>
