<svg width="94" height="94" viewBox="0 0 94 94" fill="none" xmlns="http://www.w3.org/2000/svg">
<path d="M0 0H93.3036V93.3036H0V0Z" fill="white" fill-opacity="0.01"/>
<path d="M33.0378 14.9399C34.45 14.9399 35.7512 15.7058 36.4368 16.9406L41.1922 25.5067C41.8148 26.6283 41.8441 27.9849 41.2703 29.1323L36.6891 38.2949C36.6891 38.2949 38.0167 45.1205 43.573 50.6767C49.1294 56.2329 55.932 57.5376 55.932 57.5376L65.0931 52.9572C66.2413 52.383 67.5988 52.4127 68.7208 53.0365L77.3112 57.8125C78.5449 58.4985 79.3098 59.7989 79.3098 61.2103V71.0723C79.3098 76.0946 74.6448 79.7219 69.8863 78.1161C60.1128 74.8184 44.9418 68.5395 35.3261 58.9236C25.7104 49.3079 19.4313 34.1369 16.1335 24.3635C14.5279 19.6049 18.1552 14.9399 23.1774 14.9399H33.0378Z" fill="#818286" stroke="black" stroke-width="4" stroke-linejoin="round"/>
</svg>
